<svg width="23" height="21" viewBox="0 0 23 21" fill="none" xmlns="http://www.w3.org/2000/svg">
<path d="M4.91334 17.1421L2.95085 7.81929H5.06013H17.9033H20.1063L18.102 17.1502C17.9041 18.0719 17.0894 18.7302 16.1466 18.7302H6.87045C5.92465 18.7302 5.10816 18.0676 4.91334 17.1421Z" fill="white"/>
<path d="M1.3103 7.81929H5.06013M21.7 7.81929H20.1063M20.1063 7.81929L18.102 17.1502C17.9041 18.0719 17.0894 18.7302 16.1466 18.7302H6.87045C5.92466 18.7302 5.10816 18.0676 4.91334 17.1421L2.95085 7.81929H20.1063ZM20.1063 7.81929H5.06013M9.04432 1L5.06013 7.81929M13.9191 1L17.9033 7.81929" stroke="white" stroke-width="2" stroke-linecap="round"/>
</svg>
