<svg width="23" height="21" viewBox="0 0 23 21" fill="none" xmlns="http://www.w3.org/2000/svg">
<path d="M4.60303 17.1421L2.64055 7.81929H4.74983H17.593H19.796L17.7917 17.1502C17.5938 18.0719 16.7791 18.7302 15.8363 18.7302H6.56014C5.61435 18.7302 4.79786 18.0676 4.60303 17.1421Z" fill="white"/>
<path d="M1 7.81929H4.74983M21.3897 7.81929H19.796M19.796 7.81929L17.7917 17.1502C17.5938 18.0719 16.7791 18.7302 15.8363 18.7302H6.56014C5.61435 18.7302 4.79786 18.0676 4.60303 17.1421L2.64055 7.81929H19.796ZM19.796 7.81929H4.74983M8.73402 1L4.74983 7.81929M13.6088 1L17.593 7.81929" stroke="white" stroke-width="2" stroke-linecap="round"/>
<path d="M11.4469 17.3056C10.9536 17.3056 10.5202 17.2022 10.1469 16.9956C9.78024 16.7889 9.50691 16.4922 9.32691 16.1056L9.78691 15.5356C9.94691 15.8422 10.1736 16.0822 10.4669 16.2556C10.7602 16.4222 11.0769 16.5056 11.4169 16.5056C11.8369 16.5056 12.1702 16.3889 12.4169 16.1556C12.6702 15.9222 12.7969 15.6189 12.7969 15.2456C12.7969 14.8722 12.6636 14.5756 12.3969 14.3556C12.1369 14.1356 11.7936 14.0256 11.3669 14.0256H10.8169V13.2256H11.3169C11.6436 13.2256 11.9236 13.1122 12.1569 12.8856C12.4036 12.6589 12.5269 12.3689 12.5269 12.0156C12.5269 11.6689 12.4236 11.3989 12.2169 11.2056C12.0169 11.0056 11.7402 10.9056 11.3869 10.9056C10.7536 10.9056 10.2736 11.1956 9.94691 11.7756L9.49691 11.2256C9.65691 10.8722 9.90691 10.5989 10.2469 10.4056C10.5936 10.2056 10.9936 10.1056 11.4469 10.1056C12.0336 10.1056 12.5002 10.2656 12.8469 10.5856C13.2002 10.9056 13.3769 11.3356 13.3769 11.8756C13.3769 12.2622 13.2836 12.6022 13.0969 12.8956C12.9102 13.1889 12.6402 13.4089 12.2869 13.5556V13.5856C12.7002 13.6522 13.0302 13.8422 13.2769 14.1556C13.5236 14.4689 13.6469 14.8422 13.6469 15.2756C13.6469 15.8889 13.4402 16.3822 13.0269 16.7556C12.6202 17.1222 12.0936 17.3056 11.4469 17.3056Z" fill="#292F4C"/>
</svg>
