<svg width="24" height="24" viewBox="0 0 24 24" fill="none" xmlns="http://www.w3.org/2000/svg">
<circle cx="12" cy="12" r="11.65" stroke="#909090" stroke-width="0.7"/>
<path d="M12.1652 12.5011L9.06675 15.6212C8.98067 15.7079 8.98067 15.8483 9.06675 15.935C9.10973 15.9784 9.16617 16 9.2225 16C9.27894 16 9.33527 15.9784 9.37826 15.935L12.5001 12.7914L15.6218 15.935C15.6649 15.9784 15.7213 16 15.7776 16C15.8339 16 15.8904 15.9784 15.9334 15.935C16.0194 15.8483 16.0194 15.7079 15.9334 15.6212L12.835 12.5011L15.9354 9.37873C16.0215 9.29205 16.0215 9.15161 15.9354 9.06493C15.8494 8.97836 15.7099 8.97836 15.6239 9.06493L12.5002 12.2107L9.37607 9.06504C9.28999 8.97847 9.15064 8.97847 9.06456 9.06504C8.97848 9.15172 8.97848 9.29216 9.06456 9.37884L12.1652 12.5011Z" fill="#909090" stroke="#909090" stroke-width="0.3"/>
</svg>
