<svg width="24" height="24" viewBox="0 0 24 24" fill="none" xmlns="http://www.w3.org/2000/svg">
<circle cx="12" cy="12" r="11.65" stroke="#292F4C" stroke-width="0.7"/>
<g clip-path="url(#clip0)">
<path d="M11.5222 11.9664L7.09596 16.3926C6.97299 16.5156 6.97299 16.7148 7.09596 16.8378C7.15737 16.8994 7.23799 16.93 7.31846 16.93C7.39909 16.93 7.47956 16.8994 7.54096 16.8378L12.0005 12.3783L16.46 16.8378C16.5216 16.8994 16.6021 16.93 16.6825 16.93C16.763 16.93 16.8436 16.8994 16.905 16.8378C17.028 16.7148 17.028 16.5156 16.905 16.3926L12.4789 11.9664L16.908 7.53702C17.031 7.41405 17.031 7.21483 16.908 7.09187C16.785 6.96905 16.5858 6.96905 16.463 7.09187L12.0006 11.5545L7.53784 7.09202C7.41487 6.96921 7.21581 6.96921 7.09284 7.09202C6.96987 7.21499 6.96987 7.41421 7.09284 7.53718L11.5222 11.9664Z" fill="#292F4C"/>
</g>
<defs>
<clipPath id="clip0">
<rect x="7" y="7" width="10" height="10" fill="white"/>
</clipPath>
</defs>
</svg>
