<svg width="6" height="8" viewBox="0 0 6 8" fill="none" xmlns="http://www.w3.org/2000/svg">
<path d="M5.55619 4.30002C5.47718 3.27691 5.00178 2.6368 4.58129 2.07168C4.19294 1.54673 3.85681 1.09544 3.85681 0.428543C3.85681 0.374977 3.82735 0.325428 3.77914 0.301324C3.73093 0.277219 3.67469 0.281237 3.63049 0.312037C2.99976 0.76333 2.47347 1.52397 2.29001 2.24979C2.16279 2.75465 2.14538 3.32378 2.1427 3.69875C1.56017 3.5742 1.42759 2.70242 1.42625 2.69304C1.41956 2.64751 1.39144 2.60868 1.35126 2.58725C1.31109 2.56582 1.26288 2.56449 1.22137 2.58457C1.19056 2.5993 0.471442 2.96489 0.429928 4.42456C0.428589 4.47277 0.428589 4.52232 0.428589 4.57053C0.428589 5.98869 1.5816 7.1417 2.99976 7.1417C3.00109 7.1417 3.00377 7.1417 3.00511 7.1417H3.00645C4.42193 7.13768 5.57092 5.98601 5.57092 4.57053C5.57092 4.49956 5.55619 4.30002 5.55619 4.30002ZM2.99976 6.85646C2.52704 6.85646 2.1427 6.44668 2.1427 5.94316C2.1427 5.92575 2.1427 5.90834 2.14404 5.88692C2.1494 5.67399 2.18957 5.52936 2.23376 5.43294C2.31679 5.61105 2.46543 5.77577 2.70514 5.77577C2.78415 5.77577 2.84843 5.71149 2.84843 5.63248C2.84843 5.42893 2.85245 5.19458 2.90334 4.98299C2.94887 4.79551 3.056 4.59598 3.19259 4.43528C3.25285 4.64285 3.37204 4.81158 3.48721 4.97496C3.65192 5.20931 3.82333 5.45303 3.85279 5.86683C3.85413 5.89093 3.85681 5.91638 3.85681 5.94316C3.85681 6.44668 3.47247 6.85646 2.99976 6.85646Z" fill="white"/>
</svg>
