<svg width="11" height="4" viewBox="0 0 11 4" fill="none" xmlns="http://www.w3.org/2000/svg">
<path d="M0.912 3H0.432V0.3H0.912V0.63C1.012 0.518 1.142 0.428 1.302 0.36C1.466 0.288 1.63 0.252 1.794 0.252C2.542 0.252 2.916 0.648 2.916 1.44V3H2.436V1.53C2.436 0.978 2.182 0.702 1.674 0.702C1.37 0.702 1.116 0.818 0.912 1.05V3ZM5.85497 2.328L6.00497 2.706C5.74497 2.942 5.40697 3.06 4.99097 3.06C4.55097 3.06 4.20097 2.932 3.94097 2.676C3.67697 2.42 3.54497 2.078 3.54497 1.65C3.54497 1.246 3.66897 0.91 3.91697 0.642C4.16097 0.374 4.50097 0.24 4.93697 0.24C5.29697 0.24 5.59497 0.356 5.83097 0.588C6.07097 0.816 6.19097 1.112 6.19097 1.476C6.19097 1.592 6.18097 1.7 6.16097 1.8H4.08497C4.10497 2.052 4.19897 2.25 4.36697 2.394C4.53897 2.538 4.75897 2.61 5.02697 2.61C5.37897 2.61 5.65497 2.516 5.85497 2.328ZM4.91297 0.69C4.67697 0.69 4.48097 0.756 4.32497 0.888C4.17297 1.02 4.08297 1.194 4.05497 1.41H5.69297C5.68097 1.186 5.60497 1.01 5.46497 0.882C5.32897 0.754 5.14497 0.69 4.91297 0.69ZM10.1002 0.3H10.5862L9.72216 3.024H9.30216L8.63016 1.266C8.59816 1.182 8.56416 1.072 8.52816 0.936C8.49216 1.068 8.45416 1.184 8.41416 1.284L7.76016 3.024H7.36416L6.47016 0.3H6.98616L7.51416 2.004C7.52216 2.032 7.53216 2.072 7.54416 2.124C7.56016 2.176 7.57416 2.23 7.58616 2.286C7.60216 2.338 7.61216 2.37 7.61616 2.382C7.68816 2.134 7.72616 2.008 7.73016 2.004L8.34216 0.3H8.75616L9.37416 1.998L9.50016 2.388C9.52816 2.252 9.56416 2.114 9.60816 1.974L10.1002 0.3Z" fill="white"/>
<path d="M0.912 3V3.1C0.967229 3.1 1.012 3.05523 1.012 3H0.912ZM0.432 3H0.332C0.332 3.05523 0.376772 3.1 0.432 3.1V3ZM0.432 0.3V0.2C0.376772 0.2 0.332 0.244771 0.332 0.3H0.432ZM0.912 0.3H1.012C1.012 0.244771 0.967229 0.2 0.912 0.2V0.3ZM0.912 0.63H0.812C0.812 0.671478 0.837605 0.70865 0.876359 0.723433C0.915112 0.738216 0.958969 0.727541 0.986594 0.696601L0.912 0.63ZM1.302 0.36L1.34112 0.452039L1.3422 0.451564L1.302 0.36ZM2.916 3V3.1C2.97123 3.1 3.016 3.05523 3.016 3H2.916ZM2.436 3H2.336C2.336 3.05523 2.38077 3.1 2.436 3.1V3ZM0.912 1.05L0.836903 0.983966C0.820853 1.00222 0.812 1.02569 0.812 1.05H0.912ZM0.912 2.9H0.432V3.1H0.912V2.9ZM0.532 3V0.3H0.332V3H0.532ZM0.432 0.4H0.912V0.2H0.432V0.4ZM0.812 0.3V0.63H1.012V0.3H0.812ZM0.986594 0.696601C1.07535 0.597194 1.19254 0.515178 1.34111 0.452033L1.26289 0.267967C1.09146 0.340822 0.94865 0.438805 0.837406 0.563398L0.986594 0.696601ZM1.3422 0.451564C1.49471 0.38461 1.64507 0.352 1.794 0.352V0.152C1.61493 0.152 1.43729 0.19139 1.2618 0.268435L1.3422 0.451564ZM1.794 0.352C2.15108 0.352 2.4009 0.446243 2.5628 0.617662C2.72571 0.790154 2.816 1.05803 2.816 1.44H3.016C3.016 1.02996 2.91929 0.703846 2.7082 0.480337C2.4961 0.255756 2.18492 0.152 1.794 0.152V0.352ZM2.816 1.44V3H3.016V1.44H2.816ZM2.916 2.9H2.436V3.1H2.916V2.9ZM2.536 3V1.53H2.336V3H2.536ZM2.536 1.53C2.536 1.24055 2.46958 1.00482 2.31908 0.841283C2.16714 0.676179 1.94565 0.602 1.674 0.602V0.802C1.91035 0.802 2.06986 0.865821 2.17192 0.976717C2.27542 1.08918 2.336 1.26745 2.336 1.53H2.536ZM1.674 0.602C1.34072 0.602 1.05954 0.730777 0.836903 0.983966L0.987097 1.11603C1.17246 0.905223 1.39928 0.802 1.674 0.802V0.602ZM0.812 1.05V3H1.012V1.05H0.812ZM5.85497 2.328L5.94792 2.29112C5.9357 2.26033 5.90904 2.2376 5.87672 2.23039C5.8444 2.22319 5.81061 2.23246 5.78648 2.25514L5.85497 2.328ZM6.00497 2.706L6.07218 2.78005C6.10303 2.75204 6.11329 2.70784 6.09792 2.66912L6.00497 2.706ZM3.94097 2.676L4.01113 2.60474L4.01058 2.60421L3.94097 2.676ZM3.91697 0.642L3.99037 0.709921L3.99091 0.709322L3.91697 0.642ZM5.83097 0.588L5.76085 0.659323L5.76209 0.6605L5.83097 0.588ZM6.16097 1.8V1.9C6.20864 1.9 6.24968 1.86635 6.25903 1.81961L6.16097 1.8ZM4.08497 1.8V1.7C4.05707 1.7 4.03044 1.71165 4.01151 1.73214C3.99258 1.75264 3.98308 1.7801 3.98528 1.80791L4.08497 1.8ZM4.36697 2.394L4.30189 2.46993L4.30277 2.47068L4.36697 2.394ZM4.32497 0.888L4.26037 0.811655L4.2594 0.812496L4.32497 0.888ZM4.05497 1.41L3.9558 1.39714C3.9521 1.42567 3.96086 1.4544 3.97985 1.47601C3.99884 1.49762 4.02621 1.51 4.05497 1.51V1.41ZM5.69297 1.41V1.51C5.72042 1.51 5.74666 1.49872 5.76555 1.47879C5.78443 1.45887 5.79429 1.43206 5.79283 1.40465L5.69297 1.41ZM5.46497 0.882L5.39643 0.954828L5.39749 0.955803L5.46497 0.882ZM5.76202 2.36488L5.91202 2.74288L6.09792 2.66912L5.94792 2.29112L5.76202 2.36488ZM5.93776 2.63195C5.69947 2.84825 5.38698 2.96 4.99097 2.96V3.16C5.42696 3.16 5.79047 3.03575 6.07218 2.78005L5.93776 2.63195ZM4.99097 2.96C4.57146 2.96 4.24868 2.83864 4.01113 2.60474L3.87081 2.74726C4.15326 3.02536 4.53048 3.16 4.99097 3.16V2.96ZM4.01058 2.60421C3.76921 2.37015 3.64497 2.05576 3.64497 1.65H3.44497C3.44497 2.10024 3.58473 2.46985 3.87135 2.74779L4.01058 2.60421ZM3.64497 1.65C3.64497 1.26828 3.76134 0.957409 3.99037 0.709919L3.84357 0.574081C3.57659 0.862591 3.44497 1.22372 3.44497 1.65H3.64497ZM3.99091 0.709322C4.21215 0.46632 4.52291 0.34 4.93697 0.34V0.14C4.47902 0.14 4.10978 0.28168 3.84302 0.574678L3.99091 0.709322ZM4.93697 0.34C5.27327 0.34 5.5453 0.447399 5.76087 0.659312L5.90107 0.516687C5.64464 0.264601 5.32066 0.14 4.93697 0.14V0.34ZM5.76209 0.6605C5.98013 0.867634 6.09097 1.13639 6.09097 1.476H6.29097C6.29097 1.08761 6.16181 0.764366 5.89984 0.5155L5.76209 0.6605ZM6.09097 1.476C6.09097 1.5863 6.08146 1.68766 6.06291 1.78039L6.25903 1.81961C6.28048 1.71234 6.29097 1.5977 6.29097 1.476H6.09097ZM6.16097 1.7H4.08497V1.9H6.16097V1.7ZM3.98528 1.80791C4.00705 2.08219 4.11091 2.30623 4.30189 2.46993L4.43205 2.31807C4.28703 2.19377 4.20289 2.02181 4.18466 1.79209L3.98528 1.80791ZM4.30277 2.47068C4.49612 2.63255 4.74027 2.71 5.02697 2.71V2.51C4.77767 2.51 4.58182 2.44345 4.43116 2.31732L4.30277 2.47068ZM5.02697 2.71C5.39696 2.71 5.70011 2.61081 5.92346 2.40086L5.78648 2.25514C5.60982 2.42119 5.36097 2.51 5.02697 2.51V2.71ZM4.91297 0.59C4.65719 0.59 4.43718 0.662056 4.26037 0.811661L4.38956 0.964339C4.52476 0.849943 4.69675 0.79 4.91297 0.79V0.59ZM4.2594 0.812496C4.08732 0.961931 3.98667 1.15901 3.9558 1.39714L4.15414 1.42286C4.17927 1.22899 4.25861 1.07807 4.39054 0.963503L4.2594 0.812496ZM4.05497 1.51H5.69297V1.31H4.05497V1.51ZM5.79283 1.40465C5.7797 1.1596 5.69528 0.957073 5.53245 0.808197L5.39749 0.955803C5.51466 1.06293 5.58224 1.21241 5.59311 1.41535L5.79283 1.40465ZM5.53351 0.80918C5.37473 0.659741 5.16397 0.59 4.91297 0.59V0.79C5.12597 0.79 5.28321 0.848259 5.39643 0.95482L5.53351 0.80918ZM10.1002 0.3V0.2C10.0558 0.2 10.0167 0.229234 10.0042 0.271802L10.1002 0.3ZM10.5862 0.3L10.6815 0.330234C10.6911 0.299839 10.6857 0.266669 10.6669 0.240938C10.648 0.215207 10.618 0.2 10.5862 0.2V0.3ZM9.72216 3.024V3.124C9.76574 3.124 9.8043 3.09578 9.81748 3.05423L9.72216 3.024ZM9.30216 3.024L9.20875 3.05971C9.22355 3.09843 9.2607 3.124 9.30216 3.124V3.024ZM8.63016 1.266L8.53671 1.3016L8.53675 1.30171L8.63016 1.266ZM8.52816 0.936L8.62483 0.910411C8.61325 0.866683 8.57376 0.83617 8.52853 0.836001C8.4833 0.835831 8.44358 0.866048 8.43168 0.909688L8.52816 0.936ZM8.41416 1.284L8.32129 1.24685L8.32055 1.24882L8.41416 1.284ZM7.76016 3.024V3.124C7.80181 3.124 7.83911 3.09818 7.85376 3.05918L7.76016 3.024ZM7.36416 3.024L7.26914 3.05518C7.28262 3.09624 7.32094 3.124 7.36416 3.124V3.024ZM6.47016 0.3V0.2C6.43809 0.2 6.40798 0.215374 6.38917 0.241341C6.37036 0.267308 6.36514 0.300719 6.37514 0.331183L6.47016 0.3ZM6.98616 0.3L7.08168 0.270402C7.0687 0.228539 7.02998 0.2 6.98616 0.2V0.3ZM7.51416 2.004L7.61033 1.97652L7.60968 1.9744L7.51416 2.004ZM7.54416 2.124L7.44647 2.14654L7.44858 2.15341L7.54416 2.124ZM7.58616 2.286L7.488 2.30703L7.49058 2.31541L7.58616 2.286ZM7.61616 2.382L7.52129 2.41362C7.53513 2.45514 7.57436 2.48284 7.61812 2.48198C7.66187 2.48112 7.69999 2.45191 7.71219 2.40988L7.61616 2.382ZM7.73016 2.004L7.80087 2.07471C7.81129 2.06428 7.81929 2.05168 7.82427 2.0378L7.73016 2.004ZM8.34216 0.3V0.2C8.29996 0.2 8.26231 0.226486 8.24804 0.266198L8.34216 0.3ZM8.75616 0.3L8.85013 0.265799C8.83575 0.226294 8.7982 0.2 8.75616 0.2V0.3ZM9.37416 1.998L9.46938 1.96724L9.46813 1.9638L9.37416 1.998ZM9.50016 2.388L9.405 2.41874C9.41896 2.46195 9.46028 2.49033 9.50563 2.48785C9.55097 2.48537 9.58895 2.45264 9.5981 2.40816L9.50016 2.388ZM9.60816 1.974L9.70357 2.00399L9.7041 2.0022L9.60816 1.974ZM10.1002 0.4H10.5862V0.2H10.1002V0.4ZM10.4908 0.269766L9.62684 2.99377L9.81748 3.05423L10.6815 0.330234L10.4908 0.269766ZM9.72216 2.924H9.30216V3.124H9.72216V2.924ZM9.39557 2.98829L8.72356 1.23029L8.53675 1.30171L9.20875 3.05971L9.39557 2.98829ZM8.72361 1.2304C8.69334 1.15097 8.66037 1.04468 8.62483 0.910411L8.43149 0.961589C8.46794 1.09932 8.50297 1.21303 8.53671 1.3016L8.72361 1.2304ZM8.43168 0.909688C8.39643 1.03894 8.35958 1.15119 8.32131 1.24686L8.507 1.32114C8.54874 1.21681 8.58788 1.09706 8.62463 0.962312L8.43168 0.909688ZM8.32055 1.24882L7.66655 2.98882L7.85376 3.05918L8.50776 1.31918L8.32055 1.24882ZM7.76016 2.924H7.36416V3.124H7.76016V2.924ZM7.45917 2.99282L6.56517 0.268817L6.37514 0.331183L7.26914 3.05518L7.45917 2.99282ZM6.47016 0.4H6.98616V0.2H6.47016V0.4ZM6.89064 0.329597L7.41864 2.0336L7.60968 1.9744L7.08168 0.270402L6.89064 0.329597ZM7.418 2.03147C7.4253 2.05699 7.43484 2.09503 7.44672 2.14649L7.6416 2.10151C7.62947 2.04897 7.61902 2.00701 7.61031 1.97653L7.418 2.03147ZM7.44858 2.15341C7.46368 2.20248 7.47695 2.25365 7.48838 2.30695L7.68394 2.26505C7.67136 2.20635 7.65663 2.14952 7.63973 2.09459L7.44858 2.15341ZM7.49058 2.31541C7.50643 2.36694 7.51683 2.40026 7.52129 2.41362L7.71102 2.35038C7.70748 2.33974 7.69788 2.30906 7.68173 2.25659L7.49058 2.31541ZM7.71219 2.40988C7.74817 2.28596 7.77555 2.19286 7.7944 2.13037C7.80385 2.09904 7.811 2.07592 7.81594 2.06062C7.81845 2.05283 7.82012 2.04793 7.82108 2.04528C7.82162 2.04381 7.82151 2.04419 7.82092 2.04557C7.82067 2.04617 7.81971 2.04839 7.81815 2.05135C7.81737 2.05284 7.81593 2.05547 7.81386 2.05866C7.81223 2.06117 7.80791 2.06766 7.80087 2.07471L7.65945 1.93329C7.64763 1.94511 7.64155 1.95748 7.64121 1.95812C7.63927 1.9618 7.63787 1.96499 7.63709 1.96679C7.63547 1.97057 7.63407 1.97432 7.63304 1.97715C7.63088 1.98313 7.62836 1.99066 7.62562 1.99913C7.62007 2.01633 7.61247 2.04096 7.60292 2.07263C7.58376 2.13614 7.55615 2.23004 7.52012 2.35412L7.71219 2.40988ZM7.82427 2.0378L8.43627 0.333802L8.24804 0.266198L7.63604 1.9702L7.82427 2.0378ZM8.34216 0.4H8.75616V0.2H8.34216V0.4ZM8.66219 0.334201L9.28019 2.0322L9.46813 1.9638L8.85013 0.265799L8.66219 0.334201ZM9.279 2.02874L9.405 2.41874L9.59531 2.35726L9.46931 1.96726L9.279 2.02874ZM9.5981 2.40816C9.62538 2.27566 9.66051 2.14094 9.70356 2.00398L9.51276 1.94402C9.4678 2.08706 9.43093 2.22834 9.40221 2.36783L9.5981 2.40816ZM9.7041 2.0022L10.1961 0.328198L10.0042 0.271802L9.51221 1.9458L9.7041 2.0022Z" fill="white"/>
</svg>
