<svg width="17" height="17" viewBox="0 0 17 17" fill="none" xmlns="http://www.w3.org/2000/svg">
<path d="M16.6189 13.4158L13.9935 10.7901C13.4706 10.2693 12.6046 10.2851 12.0635 10.8264L10.7408 12.1488C10.6572 12.1028 10.5707 12.0547 10.4798 12.0036C9.64452 11.5408 8.50132 10.9065 7.29835 9.70264C6.09181 8.49625 5.45689 7.35129 4.99267 6.5155C4.94368 6.42695 4.89675 6.34158 4.8504 6.2605L5.73811 5.37411L6.17454 4.93714C6.71652 4.39502 6.73146 3.52928 6.20976 3.00694L3.58437 0.380971C3.06266 -0.140639 2.1963 -0.124815 1.65432 0.417307L0.914396 1.16148L0.934616 1.18155C0.68651 1.49813 0.479185 1.86326 0.324899 2.25701C0.182678 2.6318 0.0941313 2.98946 0.0536431 3.34784C-0.293022 6.22177 1.02028 8.84833 4.58442 12.4125C9.51113 17.3389 13.4814 16.9667 13.6527 16.9486C14.0257 16.904 14.3832 16.8148 14.7466 16.6737C15.1369 16.5213 15.5018 16.3142 15.8182 16.0667L15.8343 16.081L16.5839 15.347C17.1248 14.805 17.1404 13.939 16.6189 13.4158Z" fill="white"/>
</svg>
