<svg width="17" height="23" viewBox="0 0 17 23" fill="none" xmlns="http://www.w3.org/2000/svg">
<path fill-rule="evenodd" clip-rule="evenodd" d="M5.22839 0L3.67199 1.5564V5.63859H0.693599C0.310381 5.63859 0 5.9488 0 6.33219V21.5407C0 22.168 0.508824 22.6768 1.13668 22.6768H15.8633C16.4912 22.6768 17 22.168 17 21.5407V6.33219C17 5.9488 16.6896 5.63859 16.3062 5.63859H12.8223V1.5564L12.8223 1.5564L11.2659 0H11.2659H5.22839ZM11.2659 5.63859V1.5564H5.22839V5.63859H11.2659ZM7.11833 16.0678C7.55311 15.7133 7.83338 15.1797 7.86989 14.6555C8.02231 12.4803 6.97093 10.7261 5.95051 10.7316C4.8801 10.737 3.8993 12.2967 4.07318 14.6761C4.11159 15.1976 4.39896 15.7297 4.84031 16.0806C5.20086 16.3668 5.40882 16.8029 5.38736 17.2624L5.13321 22.6768H6.81937L6.59307 17.2245C6.57439 16.7775 6.77093 16.3508 7.11833 16.0678ZM12.3355 10.454C12.1481 10.4595 12.0036 10.623 12.0036 10.8104V13.881C12.0036 14.1265 11.8047 14.3256 11.5592 14.3256C11.3135 14.3256 11.1145 14.1265 11.1145 13.881V10.8104C11.1145 10.623 10.9701 10.4595 10.7827 10.454C10.5889 10.4481 10.4299 10.6035 10.4299 10.796V13.881C10.4299 14.1265 10.231 14.3256 9.98545 14.3256C9.73978 14.3256 9.54081 14.1265 9.54081 13.881V10.8104C9.54081 10.623 9.39635 10.4595 9.20898 10.454C9.01521 10.4481 8.85638 10.6035 8.85638 10.796V14.9403C8.85638 15.304 9.15102 15.5988 9.51469 15.5988H9.56313C9.93908 15.5988 10.2384 15.9126 10.2207 16.2877L9.92057 22.6768H11.6372L11.3716 16.2846C11.3562 15.9104 11.655 15.5988 12.0297 15.5988C12.2117 15.5988 12.3761 15.5249 12.4951 15.4057C12.6142 15.2867 12.6882 15.1223 12.6882 14.9403V10.7962C12.6882 10.6035 12.5292 10.4481 12.3355 10.454Z" fill="white"/>
</svg>
