<svg width="18" height="18" viewBox="0 0 18 18" fill="none" xmlns="http://www.w3.org/2000/svg">
<path d="M0.248034 0.251059C0.577799 -0.0791289 1.11288 -0.0791289 1.44264 0.251059L17.7464 16.5548C18.0765 16.8847 18.0765 17.4194 17.7464 17.7493C17.5815 17.9144 17.3652 17.9969 17.149 17.9969C16.9329 17.9969 16.7166 17.9144 16.5518 17.7493L0.248034 1.44553C-0.0820141 1.11562 -0.0820141 0.580965 0.248034 0.251059Z" fill="white"/>
<path d="M13.9871 0.00950623C16.1997 0.00950623 18 1.80993 18 4.02252C18 6.23512 16.1997 8.0354 13.9871 8.0354C11.7744 8.0354 9.97425 6.23497 9.97425 4.02238C9.97425 1.80979 11.7745 0.00950623 13.9871 0.00950623ZM13.9871 6.34565C15.2682 6.34565 16.3104 5.30333 16.3104 4.02238C16.3104 2.74143 15.2681 1.69912 13.9871 1.69912C12.706 1.69912 11.6639 2.74143 11.6639 4.02238C11.6639 5.30333 12.706 6.34565 13.9871 6.34565Z" fill="white"/>
<path d="M4.01288 9.97018C6.22547 9.97018 8.02576 11.7705 8.02576 13.9831C8.02576 16.1957 6.22547 17.9959 4.01288 17.9959C1.80028 17.9959 0 16.1958 0 13.9831C0 11.7703 1.80028 9.97018 4.01288 9.97018ZM4.01288 16.3062C5.29397 16.3062 6.33615 15.2639 6.33615 13.9829C6.33615 12.702 5.29383 11.6597 4.01288 11.6597C2.73193 11.6597 1.68961 12.702 1.68961 13.9829C1.68961 15.2639 2.73178 16.3062 4.01288 16.3062Z" fill="white"/>
</svg>
