<svg width="7" height="7" viewBox="0 0 7 7" fill="none" xmlns="http://www.w3.org/2000/svg">
<path d="M6.84809 3.17228C6.98587 3.03212 7.03451 2.82642 6.97508 2.6352C6.91551 2.44399 6.76034 2.30749 6.56972 2.27852L4.87482 2.02146C4.80264 2.01049 4.74026 1.96324 4.70803 1.89491L3.95028 0.29202C3.8652 0.111922 3.69252 0 3.50007 0C3.30776 0 3.13508 0.111922 3.04999 0.29202L2.29211 1.89506C2.25988 1.96338 2.19736 2.01064 2.12518 2.02161L0.430282 2.27866C0.239796 2.30749 0.0844913 2.44413 0.0249206 2.63535C-0.0345101 2.82657 0.0141277 3.03227 0.151911 3.17243L1.37823 4.4201C1.43051 4.47335 1.45448 4.55001 1.44214 4.62492L1.15284 6.3867C1.12719 6.54178 1.16616 6.69262 1.26231 6.81156C1.41173 6.99693 1.67258 7.0534 1.88115 6.93899L3.39691 6.10711C3.46026 6.07244 3.54002 6.07273 3.60323 6.10711L5.11913 6.93899C5.19286 6.97952 5.27149 7 5.35265 7C5.50081 7 5.64125 6.93124 5.73783 6.81156C5.83412 6.69262 5.87295 6.54149 5.8473 6.3867L5.55786 4.62492C5.54552 4.54987 5.56949 4.47335 5.62177 4.4201L6.84809 3.17228Z" fill="white"/>
</svg>
