<svg width="375" height="93" viewBox="0 0 375 93" fill="none" xmlns="http://www.w3.org/2000/svg">
<path fill-rule="evenodd" clip-rule="evenodd" d="M0 0V93H375V0C375 14.9117 362.912 27 348 27H234.607C233.889 27.1493 233.073 27.2277 232.15 27.2277C217.608 27.2277 213.259 39.3465 212.903 45.4059L212.9 45.4032C212.711 59.0199 201.614 70 187.952 70C174.291 70 163.193 59.0199 163.004 45.4032L163.002 45.4059C162.645 39.3465 158.06 27.2277 143.517 27.2277C142.595 27.2277 141.778 27.1493 141.06 27H27C12.0883 27 0 14.9117 0 0Z" fill="#292F4C"/>
</svg>
